<mxfile host="app.diagrams.net" modified="2022-06-01T01:03:37.972Z" agent="5.0 (Windows NT 10.0; Win64; x64) AppleWebKit/537.36 (KHTML, like Gecko) Chrome/101.0.4951.64 Safari/537.36 Edg/101.0.1210.53" etag="zWAHReIuh52pIHk_VK6E" version="18.1.3" type="github">
  <diagram id="0AwTZF95sFC1BU1uYgbV" name="第 1 页">
    <mxGraphModel dx="1038" dy="578" grid="1" gridSize="10" guides="1" tooltips="1" connect="1" arrows="1" fold="1" page="1" pageScale="1" pageWidth="827" pageHeight="1169" math="0" shadow="0">
      <root>
        <mxCell id="0" />
        <mxCell id="1" parent="0" />
        <mxCell id="qQISGYojtCyCliOh4I63-1" value="&lt;font style=&quot;font-size: 15px;&quot; face=&quot;Lucida Console&quot;&gt;&lt;b&gt;for (int x = 0; x &amp;lt; UNROLL; x ++) {&lt;br&gt;&amp;nbsp; &amp;nbsp; ......&lt;br&gt;}&lt;br&gt;&lt;/b&gt;&lt;/font&gt;" style="text;html=1;strokeColor=none;fillColor=none;align=left;verticalAlign=middle;whiteSpace=wrap;rounded=0;" vertex="1" parent="1">
          <mxGeometry x="50" y="210" width="350" height="30" as="geometry" />
        </mxCell>
        <mxCell id="qQISGYojtCyCliOh4I63-3" value="" style="endArrow=classic;html=1;rounded=0;fontFamily=Lucida Console;fontSize=15;" edge="1" parent="1">
          <mxGeometry width="50" height="50" relative="1" as="geometry">
            <mxPoint x="420" y="220" as="sourcePoint" />
            <mxPoint x="490" y="220" as="targetPoint" />
          </mxGeometry>
        </mxCell>
        <mxCell id="qQISGYojtCyCliOh4I63-4" value="" style="rounded=0;whiteSpace=wrap;html=1;fontFamily=Lucida Console;fontSize=15;" vertex="1" parent="1">
          <mxGeometry x="520" y="170" width="200" height="20" as="geometry" />
        </mxCell>
        <mxCell id="qQISGYojtCyCliOh4I63-5" value="" style="rounded=0;whiteSpace=wrap;html=1;fontFamily=Lucida Console;fontSize=15;" vertex="1" parent="1">
          <mxGeometry x="530" y="180" width="200" height="20" as="geometry" />
        </mxCell>
        <mxCell id="qQISGYojtCyCliOh4I63-6" value="" style="rounded=0;whiteSpace=wrap;html=1;fontFamily=Lucida Console;fontSize=15;" vertex="1" parent="1">
          <mxGeometry x="540" y="190" width="200" height="20" as="geometry" />
        </mxCell>
        <mxCell id="qQISGYojtCyCliOh4I63-7" value="" style="rounded=0;whiteSpace=wrap;html=1;fontFamily=Lucida Console;fontSize=15;" vertex="1" parent="1">
          <mxGeometry x="550" y="200" width="200" height="20" as="geometry" />
        </mxCell>
        <mxCell id="qQISGYojtCyCliOh4I63-8" value="" style="rounded=0;whiteSpace=wrap;html=1;fontFamily=Lucida Console;fontSize=15;" vertex="1" parent="1">
          <mxGeometry x="560" y="210" width="200" height="20" as="geometry" />
        </mxCell>
        <mxCell id="qQISGYojtCyCliOh4I63-9" value="" style="rounded=0;whiteSpace=wrap;html=1;fontFamily=Lucida Console;fontSize=15;" vertex="1" parent="1">
          <mxGeometry x="570" y="220" width="200" height="20" as="geometry" />
        </mxCell>
        <mxCell id="qQISGYojtCyCliOh4I63-10" value="" style="rounded=0;whiteSpace=wrap;html=1;fontFamily=Lucida Console;fontSize=15;" vertex="1" parent="1">
          <mxGeometry x="580" y="230" width="200" height="20" as="geometry" />
        </mxCell>
        <mxCell id="qQISGYojtCyCliOh4I63-11" value="&lt;font face=&quot;Helvetica&quot;&gt;instruction-level parallelism&lt;/font&gt;" style="text;html=1;align=center;verticalAlign=middle;resizable=0;points=[];autosize=1;strokeColor=none;fillColor=none;fontSize=15;fontFamily=Lucida Console;" vertex="1" parent="1">
          <mxGeometry x="540" y="130" width="200" height="20" as="geometry" />
        </mxCell>
      </root>
    </mxGraphModel>
  </diagram>
</mxfile>
